<?xml version="1.0" ?><!DOCTYPE svg  PUBLIC '-//W3C//DTD SVG 1.1//EN'  'http://www.w3.org/Graphics/SVG/1.1/DTD/svg11.dtd'><svg enable-background="new 0 0 100 100" height="100px" id="Layer_1" version="1.1" viewBox="0 0 100 100" width="100px" xml:space="preserve" xmlns="http://www.w3.org/2000/svg" xmlns:xlink="http://www.w3.org/1999/xlink"><g><circle cx="50" cy="50" fill="#EE4134" r="45"/><g><path d="M40.779,46.814v6.371c0,0,6.169-0.008,8.682-0.008c-1.36,4.129-3.476,6.378-8.682,6.378    c-5.268,0-9.38-4.278-9.38-9.556c0-5.276,4.112-9.555,9.38-9.555c2.786,0,4.584,0.98,6.234,2.347    c1.32-1.323,1.21-1.512,4.571-4.691c-2.854-2.601-6.644-4.186-10.806-4.186c-8.868,0-16.057,7.202-16.057,16.084    c0,8.884,7.188,16.085,16.057,16.085c13.256,0,16.495-11.562,15.421-19.271H40.779z" fill="#FFFFFF"/><polygon fill="#FFFFFF" points="69.714,47.133 69.714,41.559 65.739,41.559 65.739,47.133 60.017,47.133 60.017,51.114     65.739,51.114 65.739,56.848 69.714,56.848 69.714,51.114 75.277,51.114 75.277,47.133   "/></g></g></svg>